<svg width="20" height="20" viewBox="0 0 100 100" fill="none" xmlns="http://www.w3.org/2000/svg">
<path d="M40.625 18.75C40.625 16.2636 41.6127 13.879 43.3709 12.1209C45.129 10.3627 47.5136 9.375 50 9.375C52.4864 9.375 54.871 10.3627 56.6291 12.1209C58.3873 13.879 59.375 16.2636 59.375 18.75C59.375 21.2364 58.3873 23.621 56.6291 25.3791C54.871 27.1373 52.4864 28.125 50 28.125C47.5136 28.125 45.129 27.1373 43.3709 25.3791C41.6127 23.621 40.625 21.2364 40.625 18.75ZM40.625 50C40.625 47.5136 41.6127 45.129 43.3709 43.3709C45.129 41.6127 47.5136 40.625 50 40.625C52.4864 40.625 54.871 41.6127 56.6291 43.3709C58.3873 45.129 59.375 47.5136 59.375 50C59.375 52.4864 58.3873 54.871 56.6291 56.6291C54.871 58.3873 52.4864 59.375 50 59.375C47.5136 59.375 45.129 58.3873 43.3709 56.6291C41.6127 54.871 40.625 52.4864 40.625 50ZM40.625 81.25C40.625 78.7636 41.6127 76.379 43.3709 74.6209C45.129 72.8627 47.5136 71.875 50 71.875C52.4864 71.875 54.871 72.8627 56.6291 74.6209C58.3873 76.379 59.375 78.7636 59.375 81.25C59.375 83.7364 58.3873 86.121 56.6291 87.8791C54.871 89.6373 52.4864 90.625 50 90.625C47.5136 90.625 45.129 89.6373 43.3709 87.8791C41.6127 86.121 40.625 83.7364 40.625 81.25Z" fill="black"/>
</svg>
